<?xml version="1.0" encoding="UTF-8"?>
<svg id="Layer_1" xmlns="http://www.w3.org/2000/svg" version="1.1" viewBox="0 0 64 64">
  <!-- Generator: Adobe Illustrator 29.5.1, SVG Export Plug-In . SVG Version: 2.1.0 Build 141)  -->
  <defs>
    <style>
      .st0 {
        fill: #f68521;
      }
    </style>
  </defs>
  <path class="st0" d="M9.2,43.3c0-11,11.9-12.4,11.9-12.4,0,0-8.3-7-4.3-15.8,1.9-4.2,6.1-6.8,11.5-6.9h.5c4.8,0,9,2.7,11,6.8,1.8,3.6,1.3,8.2-1.3,11.3-2.5,2.9-6.7,5.1-6.7,5.1h11.8v5.9h-11s4.4,11.6,11.1,11.6,4.3-1.8,5-4.9h6.2c-1,5.7-5,11-11.8,11-3.2,0-6.2-1.2-8.6-3.2,0,0-4.3,3.8-11.8,3.8s-13.6-2.4-13.6-12.2h0ZM29.8,47.2s-3.8-5.2-5.8-11.2c0,0-9.4,1.8-6.9,8.9,2.5,7.1,12.4,2.3,12.6,2.2ZM26.9,27.5s7.1-2.1,7.1-7.8-2.3-5.8-5.7-5.8-5.8,2.2-5.8,5.8c0,5.1,4.4,7.8,4.4,7.8Z"/>
</svg>