<?xml version="1.0" encoding="UTF-8"?>
<svg id="Layer_1" xmlns="http://www.w3.org/2000/svg" version="1.1" viewBox="0 0 640 320">
  <!-- Generator: Adobe Illustrator 29.5.1, SVG Export Plug-In . SVG Version: 2.1.0 Build 141)  -->
  <path d="M42.4,61.3h20.6l41.6,66.9V61.3h16.9v89.5h-20.9l-41.5-66.9v66.9h-16.8V61.3Z"/>
  <path d="M147.5,138.7c-7.6-8.7-11.9-20.9-11.9-33.4s4.1-24.2,11.6-32.6c8.4-9.6,20.6-14.7,35.3-14.7s26.9,5.1,35.3,14.7c7.6,8.6,11.8,20.2,11.8,32.8s-4.4,24.7-11.9,33.4c-8.4,9.7-20.6,15-35.1,15s-26.6-5.2-35.2-15.1ZM159,127.8c5.8,6.7,14,10.1,23.6,10.1s17.8-3.5,23.7-10.1c5.1-6.1,7.9-14,7.8-21.9,0-16-10.9-32.1-31.5-32.1s-31.4,16.1-31.4,32.1c-.1,7.9,2.7,15.7,7.8,21.9Z"/>
  <path d="M251.8,138.7c-7.6-8.7-11.9-20.9-11.9-33.4s4.1-24.2,11.6-32.6c8.4-9.6,20.6-14.7,35.3-14.7s26.9,5.1,35.3,14.7c7.6,8.6,11.8,20.2,11.8,32.8s-4.4,24.7-11.9,33.4c-8.4,9.7-20.6,15-35.1,15s-26.6-5.2-35.2-15.1ZM263.3,127.8c5.8,6.7,14,10.1,23.6,10.1s17.8-3.5,23.7-10.1c5.1-6.1,7.9-14,7.8-21.9,0-16-10.9-32.1-31.5-32.1s-31.4,16.1-31.4,32.1c-.1,7.9,2.7,15.7,7.8,21.9Z"/>
  <path d="M348,150.7V61.3h21.8c16.4,0,28.9,3.7,37,11,8.1,7.3,12.2,18.4,12.2,33.2s-4.1,26.4-12.3,33.9-20.4,11.4-36.2,11.4h-22.4ZM370.2,136.1c21.1,0,32.4-9.9,32.4-30.5s-11.3-29.8-32.4-29.8h-4.9v60.3h4.9Z"/>
  <path d="M433.3,61.3h16.4v74.9h28.2v14.6h-44.5V61.3Z"/>
  <path d="M488.2,61.3h44.7v13.4h-18.4c-6.9,0-11,4.5-11,12s5.6,12.2,11,12.2h16.9v13.6h-16.9c-7,0-11.3,4.6-11.3,12.3s2.9,12.5,11.3,12.5h18.4v13.4h-44.7V61.3Z"/>
  <path d="M546.3,147.2v-15.5c5.5,0,13.6,6.4,22,6.4s15.2-3.6,15.2-11.6-12-13.8-16.1-15.2c-11.6-4.2-22.4-10.1-22.4-25.3s11.9-27,29.4-27,18.9,3.5,23.3,5.4v15.4c-4.5,0-13.4-6.3-21.6-6.3s-13.7,3.6-13.7,10.5,9.3,11.8,19.5,15.7c13.1,5.1,19.3,12.7,19.3,24.6s-6.7,28.9-31.5,28.9-19.1-3.8-23.4-5.9Z"/>
  <path d="M27.8,236.7c0-22,23.8-24.8,23.8-24.8,0,0-16.6-14-8.6-31.5,3.8-8.4,12.3-13.7,22.9-13.8h.9c9.5,0,18,5.4,22,13.6,3.5,7.2,2.7,16.5-2.6,22.7-5,5.8-13.4,10.1-13.4,10.1h23.7v11.9h-21.9s8.8,23.2,22.3,23.2,8.6-3.6,10.1-9.9h12.3c-1.9,11.4-10,22-23.6,22-6.3-.1-12.4-2.4-17.2-6.5,0,0-8.7,7.6-23.6,7.6s-27.3-4.9-27.3-24.4ZM69.1,244.4s-7.6-10.5-11.5-22.3c0,0-18.7,3.6-13.7,17.8,4.9,14.1,24.7,4.7,25.2,4.5ZM63.3,205.1s14.3-4.2,14.3-15.5-4.6-11.5-11.4-11.5-11.6,4.4-11.6,11.5c0,10.2,8.7,15.5,8.7,15.5Z"/>
  <path d="M134.1,169.3h24.8c10.1,0,29.1,2.4,29.1,22s-16.6,20.2-16.6,20.2c0,0,24.2.3,24.2,23.8s-13.1,23.4-30.2,23.4h-31.2v-89.5ZM160.7,205.1h.5c7.8,0,12.4-4.4,12.4-12s-4.6-12.2-12.4-12.2h-.5c-7.9,0-12.4,4.4-12.4,12s4.6,12.2,12.4,12.2ZM162.8,246.6h.6c9.1,0,14.3-5.1,14.3-13.8s-5.1-14-14.2-14h-.6c-9.1,0-14.2,5-14.2,13.7s5.1,14.1,14.1,14.1Z"/>
  <path d="M209,169.3h44.7v13.4h-18.4c-6.9,0-11,4.5-11,12s5.6,12.2,11,12.2h16.9v13.6h-16.9c-7,0-11.3,4.6-11.3,12.3s2.9,12.5,11.3,12.5h18.4v13.4h-44.7v-89.5Z"/>
  <path d="M290.5,219.2l-30.1-49.9h19.3l20,34.7,19.1-34.7h19.5l-31,49.8v39.6h-16.8v-39.4Z"/>
  <path d="M349.8,246.7c-7.6-8.7-11.9-20.9-11.9-33.4s4.1-24.2,11.6-32.6c8.4-9.6,20.6-14.7,35.3-14.7s26.9,5.1,35.3,14.7c7.6,8.6,11.8,20.2,11.8,32.8s-4.4,24.7-11.9,33.4c-8.4,9.7-20.6,15-35.1,15s-26.6-5.2-35.2-15.1ZM361.3,235.8c5.8,6.7,14,10.1,23.6,10.1s17.8-3.5,23.7-10.1c5.1-6.1,7.9-14,7.8-21.9,0-16-10.9-32.1-31.5-32.1s-31.4,16.1-31.4,32.1c-.1,7.9,2.7,15.7,7.8,21.9Z"/>
  <path d="M446,169.3h20.6l41.6,66.9v-66.9h16.9v89.5h-20.9l-41.5-66.9v66.9h-16.8v-89.5Z"/>
  <path d="M543,258.7v-89.5h21.8c16.4,0,28.9,3.7,37,11,8.1,7.3,12.2,18.4,12.2,33.2s-4.1,26.4-12.3,33.9-20.4,11.4-36.2,11.4h-22.4ZM565.2,244.1c21.1,0,32.4-9.9,32.4-30.5s-11.3-29.8-32.4-29.8h-4.9v60.3h4.9Z"/>
</svg>